<?xml version="1.0" encoding="UTF-8"?>
<svg id="Layer_1" data-name="Layer 1" xmlns="http://www.w3.org/2000/svg" viewBox="0 0 2100 2098.81">
  <defs>
    <style>
      .cls-1 {
        fill: #f89938;
      }

      .cls-2 {
        fill: #fdcc9a;
      }

      .cls-3 {
        fill: #fff;
      }

      .cls-4 {
        fill: #fcf9ce;
      }

      .cls-5 {
        fill: #af7eb7;
      }

      .cls-6 {
        fill: #cb6828;
      }

      .cls-7 {
        fill: #cb2026;
      }

      .cls-8 {
        fill: #cb9866;
      }

      .cls-9 {
        fill: #70bfbf;
      }

      .cls-10 {
        fill: #9cc;
      }

      .cls-11 {
        fill: #39b54a;
      }

      .cls-12 {
        fill: none;
        stroke: #fff;
        stroke-linecap: round;
        stroke-linejoin: round;
        stroke-width: 27px;
      }
    </style>
  </defs>
  <rect class="cls-10" width="2100" height="2098.81"/>
  <path class="cls-3" d="M1192.6,984.82c4.05-4.61,8.05-9.26,12-13.96,3.49-4.15,7.53-8.71,9.49-13.81,.68-1.77-1.66-3.39-3.16-2.43-4.79,3.06-8.52,8.24-12,12.65-3.65,4.66-7.28,9.33-10.85,14.06-1.97,2.6,2.38,5.94,4.53,3.49h0Z"/>
  <path class="cls-1" d="M1199.96,707.54c8.26-.36,15.85-2.3,23.16,2.81,5.51,3.85,8.49,10.7,14.31,13.93,.89,.5,2.41-.1,2.26-1.3-.93-7.49-8.04-14.89-14.25-18.73-7.95-4.92-18.28-4.76-26.58-.8-1.97,.95-1,4.18,1.11,4.09h0Z"/>
  <g>
    <path class="cls-2" d="M1027.71,1330.73c-1.62-14.84-8.36-54.87-5.97-55.16,3.47-.43,52.3-5.51,101.34-42.38,68.09-51.19,56.03-27.91,109.31-90.28,26.68-31.22,21.63-103.25,18.33-137.47-4.54-47-9.36-48.99-34.32-82.14-35.99,9.05-73.15,13.67-110.33,13.72-12.55,.01-25.46-.43-37.22,3.83-14.56,5.28-25.52,17.07-35.88,28.45-32.56,35.75,10.19-100.14-22.37-64.4-15.85,17.41-202.65,101.25-202.65,426.57,15.79,3.98,185.83,.54,185.83,.54"/>
    <path class="cls-7" d="M1210.61,924.35c-6.83,1.55-13.07,5.88-18.99,9.48-6.11,3.73-11.96,7.71-17.7,11.98s-11.39,8.6-17.05,12.95c-4.58,3.51-9.35,7.09-12.46,12.07-6.04,9.65,.24,20.87,9.68,25.28,12.8,5.97,27.78-.63,40.19-4.6,8.01-2.57,16.09-4.96,24.12-7.44,4.18-1.29,8.45-1.76,12.65-2.92,4.15-1.14,8.31-2.51,12.31-4.09s2.4-7.6-1.75-6.34c-5.93,1.8-12,3.88-17.55,6.65-6.02,3-12.74,4.62-19.18,6.51-6.24,1.82-12.52,3.42-18.85,4.9-6.33,1.48-12.64,2.98-19.15,2.96-5.68-.01-11.02-1.35-15.12-5.46-3.7-3.7-5.13-9.1-2.52-13.85,2.61-4.75,8.37-8.32,12.8-11.54,4.99-3.64,10.18-7.06,15.42-10.33,6.04-3.77,12.07-7.54,18.1-11.31,5.72-3.56,12.21-6.71,16.97-11.55,1.44-1.46-.03-3.76-1.94-3.33h.01Z"/>
    <path class="cls-7" d="M1231.77,981.52c-7.68,2.93-14.85,7.21-22.01,11.2-7.16,3.99-14.45,8.07-21.64,12.18-6.75,3.86-13.42,7.68-19.67,12.34-5.11,3.81-10.1,7.77-13.47,13.29-6.04,9.91-6.42,24.01,3.72,31.31,10.93,7.87,27.79,5.8,39.93,2.43,7.73-2.14,15.15-5.44,22.22-9.22,7.15-3.83,15.42-8.36,20.94-14.38,1.51-1.64,.05-5.03-2.38-4.09-5.82,2.26-11.02,6.1-16.46,9.12-5.78,3.21-11.61,6.33-17.78,8.72-11.33,4.39-24.52,7.33-36.59,4.35-5.81-1.43-10.67-4.88-12.08-10.95-1.32-5.7,.63-11.65,4.12-16.2,3.66-4.79,8.63-8.33,13.9-11.15,5.99-3.2,11.93-6.42,17.82-9.81,7.18-4.12,14.3-8.32,21.43-12.53,6.85-4.03,13.92-7.96,20.13-12.96,1.67-1.35-.13-4.41-2.13-3.65h0Z"/>
    <path class="cls-7" d="M1240.63,1037.35c-6.05,2.33-11.75,6.17-17.22,9.6-5.84,3.66-11.63,7.38-17.44,11.11-10.28,6.6-21.54,13.44-29.81,22.56-6.26,6.91-14.64,19.03-10.62,28.8,3.91,9.48,18.1,12.8,27.13,13.61,6.87,.61,13.81-.25,20.51-1.76,6.6-1.47,14.48-3.25,20.15-7.08,2.01-1.35,1.51-5.26-1.35-5.01-7,.62-13.8,3.8-20.66,5.32-6.86,1.52-13.25,2.11-19.91,1.46-6.17-.61-12.89-2.49-17.92-6.24-6.91-5.16-3.75-12.53,.22-18.62,7.79-11.95,20.32-17.41,31.9-24.88,6.21-4,12.43-7.99,18.59-12.07,6.2-4.1,13.12-8.12,18.44-13.36,1.39-1.37-.01-4.24-2.02-3.46h.01Z"/>
    <path class="cls-7" d="M1238.07,1106.05c-5.45,2.4-10.93,4.4-16.14,7.32-5.14,2.87-10.18,5.91-15.07,9.16-8.66,5.76-18.27,11.81-24.97,19.88-5.39,6.5-9.41,14.8-8.04,23.41,.98,6.16,6.48,14,13.43,14.06,.63,0,.9-.9,.33-1.21-3.74-1.99-6.29-3.54-7.67-7.76-1.03-3.12-1.89-6.16-1.64-9.49,.64-8.78,7.94-14.78,14.26-19.96,7.26-5.95,15-11.28,22.86-16.4,7.86-5.11,16.34-10.75,24.76-15.43,2.39-1.32,.29-4.63-2.09-3.58h0Z"/>
    <path class="cls-8" d="M1219.36,1254.14h0c-26.25,3.45-50.34-15.04-53.79-41.3l-75.97-578.28c-3.45-26.25,15.04-50.34,41.3-53.79h0c26.25-3.45,50.34,15.04,53.79,41.3l75.97,578.28c3.45,26.25-15.04,50.34-41.3,53.79Z"/>
    <path class="cls-2" d="M1258.59,911.07c-29.86,6.44-58.45,18.52-83.79,35.39-7.74,5.16-15.45,11.06-19.61,19.33-4.16,8.27-3.74,19.48,3.29,25.58,8.39,7.28,21.28,4.41,31.83,.86,15.82-5.34,31.43-11.33,46.76-17.94,9.59-4.14,19.25-8.63,26.89-15.71,7.64-7.07,13.05-17.21,11.98-27.52-1.06-10.31-6.87-20.28-17.34-20"/>
    <path class="cls-2" d="M1263.6,977.77c-38.39,9.03-74.58,27.02-104.79,52.09-4.6,3.82-9.16,7.92-11.96,13.18-2.8,5.26-3.54,11.97-.45,17.09,6.08,10.1,21.18,8.14,32.56,4.85,30.4-8.79,57.02-20.17,82.14-38.47,6.65-4.85,17.59-15.39,19.39-23.39,1.8-7.99,1-28.97-16.89-25.34"/>
    <path class="cls-2" d="M1275.88,1030.94c-38.61,10.21-75.12,30.01-105.74,57.35-4.67,4.16-9.29,8.63-12.16,14.32-2.87,5.69-3.71,12.9-.68,18.36,5.96,10.77,21.12,8.45,32.57,4.77,30.59-9.85,57.43-22.43,82.85-42.43,6.74-5.3,17.84-16.77,19.75-25.38,1.91-8.61,1.38-31.13-16.58-26.99"/>
    <path class="cls-2" d="M1257.08,1102.61c-34.25,8.75-56.52,32.14-79.22,61.07-3.46,4.41-4.85,19.71-1.15,23.68,1.51,1.62,3.72,2.22,5.85,2.61,15.94,2.89,30.36-7.61,44.03-17.44,13.67-9.83,26.97-18.72,37.16-32.62,4.25-5.8,8.6-12.39,8.24-19.66-.36-7.26-7.52-17.51-14.9-17.64"/>
    <path class="cls-2" d="M1058.91,985.87c1.39-1.44,18.1,26.83,11.91-3.47-5.93-29.04,54.36-15.6,82.14-25.93,62.22-23.13,64.09-52.74,56.5-52.18-57.05,4.26-114.58,1.92-171.09-6.97-5.38-.85-10.96-1.74-16.19-.22-7.13,2.07-12.23,8.17-16.81,14.01-37.56,47.82-71.26,98.67-100.65,151.9-9,16.29-18.78,33.96-35.82,41.44-5.46,2.4-11.47,3.63-17.01,5.78-4.15,1.61-6.01,6.45-4.03,10.43l12.18,24.5c2.32,4.67,8.57,5.65,12.21,1.91l186.65-161.19h.01Z"/>
    <path class="cls-6" d="M996.34,1134.85c6.06-4.53,11.31-9.33,15.66-15.59,4.21-6.04,7.87-12.43,11.08-19.06,6.82-14.08,12.33-28.46,15.5-43.8,3.65-17.74,4.5-35.82,7.21-53.69,.65-4.29,1.19-8.57,1.67-12.88s.45-9.53,4.73-11.96c6.32-3.58,15.46-1.06,22.29-1.03,20.03,.1,40.91-6.04,58.94-14.48,2.08-.98,.54-3.92-1.49-3.52-18.67,3.73-36.12,11.13-55.43,11.57-13.2,.31-32.31-4.18-34.43,14.19-1.16,10.12-1.24,20.31-2.82,30.38-1.46,9.32-3.1,18.64-4.88,27.9-2.92,15.18-5.75,30.79-10.68,45.47-5.63,16.75-16.61,31.69-29.87,43.27-1.75,1.53,.62,4.67,2.51,3.25h.01Z"/>
    <path class="cls-4" d="M1456.37,762.55l-606.91,79.73c-25.27,3.32-48.46-14.48-51.78-39.75l-51.02-388.38c-3.32-25.27,14.48-48.46,39.75-51.78l606.91-79.73c25.27-3.32,48.46,14.48,51.78,39.75l51.02,388.38c3.32,25.27-14.48,48.46-39.75,51.78Z"/>
  </g>
  <path class="cls-5" d="M794.98,1322.4c-1.5,33.95-49.39,742.41-48.93,776.41l218.8-1.46,140.06,1.46c-1.92-33.03-53.47-737.15-57.03-770.07,0,0-182.21,10.09-252.9-6.34h0Z"/>
  <path class="cls-3" d="M824.33,1366.09c-.68,8.3-.09,16.77,.4,25.1,.23,3.94,.47,7.88,.75,11.81s.15,8.2,2.1,11.63c1.17,2.06,3.93,1.35,4.67-.61,1.39-3.62,.57-7.97,.25-11.75-.34-4.18-.69-8.37-1.06-12.55-.72-8.06-1.4-16.29-3.25-24.15-.54-2.28-3.68-1.58-3.86,.52h0Z"/>
  <path class="cls-3" d="M860.29,1379.32c-1.05,7.43-1.7,14.89-1.47,22.4,.11,3.74,.38,7.46,.83,11.17,.42,3.4,.47,7.56,2.46,10.42,1.31,1.88,4.56,1.85,5.17-.68,.81-3.39-.36-7.02-.8-10.44s-.78-6.97-1-10.47c-.43-7.23-.48-14.46,.04-21.7,.22-2.95-4.82-3.7-5.24-.71h.01Z"/>
  <path class="cls-3" d="M862.19,1480.15c-.12,8.59-.25,17.19-.36,25.78-.06,4.18-.13,8.34-.16,12.52-.03,4.18-.62,8.69,.69,12.62,.99,2.96,5.03,2.97,6.03,0,1.24-3.68,.72-8.02,.7-11.88-.03-4.42-.1-8.84-.16-13.26-.12-8.59-.25-17.19-.36-25.78-.06-4.09-6.3-4.09-6.36,0h0Z"/>
  <path class="cls-3" d="M926.31,1398.6c-1.19,7.59-1.44,15.18-.45,22.81,.77,6.04,1.47,15.71,7.32,19.03,1.14,.65,2.55,.04,2.93-1.19,1-3.29-.01-5.87-.94-9.07-.86-2.98-1.59-6.01-2.08-9.08-1.1-6.81-1.15-13.86-.22-20.69,.57-4.24-5.87-6.15-6.54-1.8h0Z"/>
  <path class="cls-3" d="M963.05,1354.9c1.76,18.69,2.39,37.92,6.57,56.25,.63,2.76,4.85,2.1,4.87-.66,.14-18.53-3.35-37.21-5.62-55.59-.45-3.63-6.17-3.77-5.82,0h0Z"/>
  <path class="cls-3" d="M959.46,1491.28c-.09,9.98-.17,19.96-.26,29.94-.04,4.87-.12,9.74-.12,14.6s-.28,10.1,1.27,14.54c.83,2.34,3.95,2.35,4.78,0,1.48-4.23,1.26-9.36,1.27-13.81,.01-5.11-.07-10.23-.11-15.34-.09-9.98-.17-19.96-.26-29.94-.04-4.23-6.54-4.24-6.57,0h0Z"/>
  <path class="cls-3" d="M823.88,1538.57c.39,8.95,1.13,17.95,2.55,26.8,.71,4.41,1.54,8.81,2.49,13.19,.89,4.06,1.37,8.8,4.06,12.07,1.3,1.58,4.51,.8,4.82-1.27,.57-3.83-1-7.53-1.92-11.25-1.07-4.34-2.02-8.7-2.85-13.09-1.65-8.78-2.96-17.54-3.71-26.44-.29-3.44-5.6-3.54-5.44,0h0Z"/>
  <path class="cls-3" d="M903.66,1535.8l-.11,23c-.01,3.71-.09,7.42-.05,11.13s-.25,7.64,.75,11.17c.8,2.81,4.91,2.82,5.72,0,1-3.54,.71-7.52,.75-11.17s-.04-7.42-.05-11.13l-.11-23c-.02-4.44-6.88-4.44-6.89,0h0Z"/>
  <path class="cls-3" d="M859.14,1649.88c.48,10,.62,20.02,.34,30.03-.13,4.88-.36,9.77-.67,14.64-.29,4.54-1.59,10.27-.22,14.65,.71,2.25,4.06,2.98,5.27,.68,2.08-3.97,1.8-9.46,2.05-13.87,.28-5.12,.42-10.25,.48-15.38,.12-10.26-.18-20.52-.85-30.76-.27-4.09-6.61-4.15-6.41,0h0Z"/>
  <path class="cls-3" d="M818.05,1644.32c-1,8.15-.79,16.33,.6,24.42,1.38,8.09,3.54,15.5,8.78,21.61,1.29,1.5,3.39-.14,3.06-1.78-1.46-7.29-4.29-14.22-5.68-21.52-1.39-7.3-1.6-15.15-.82-22.72,.39-3.82-5.47-3.72-5.92,0h0Z"/>
  <path class="cls-3" d="M926.22,1625.68c1.36,7.53,2.23,15.12,2.56,22.76,.16,3.6,.19,7.21,.09,10.82s-.77,7.4,.16,10.93c.87,3.29,4.96,2.67,6.08,0,1.38-3.31,1.03-7.38,1.01-10.93-.02-4.09-.19-8.18-.51-12.25-.6-7.73-1.77-15.39-3.43-22.96-.86-3.93-6.68-2.23-5.98,1.64h0Z"/>
  <path class="cls-3" d="M992.37,1599.83c.57,6.72,1.13,13.44,1.7,20.17,.57,6.73,.97,13.14,2.94,19.32,.81,2.52,4.02,1.79,4.34-.59,.86-6.42,.1-13.03-.48-19.45-.58-6.42-1.18-12.97-1.76-19.45-.39-4.27-7.1-4.33-6.74,0h0Z"/>
  <path class="cls-3" d="M976.37,1691.6c-.17,8.59-.37,17.18-.39,25.78-.01,4.18-.07,8.35-.03,12.52s-.38,8.53,.74,12.54c.76,2.72,4.75,2.72,5.51,0,1.06-3.79,.66-7.9,.71-11.81,.06-4.41,0-8.84,0-13.26-.02-8.6-.22-17.19-.39-25.78-.08-3.95-6.07-3.96-6.14,0h0Z"/>
  <path class="cls-3" d="M856.54,1777.86l-.04,14.64c-.01,4.36-.7,9.74,.78,13.87,.89,2.47,4.15,2.48,5.04,0,1.49-4.15,.8-9.49,.78-13.87l-.04-14.64c-.01-4.19-6.51-4.2-6.52,0h0Z"/>
  <path class="cls-3" d="M795.47,1747.25l-.02,15.38c0,4.37-.58,9.44,1.44,13.44,.65,1.28,2.75,1.28,3.39,0,2.02-3.99,1.45-9.08,1.44-13.44l-.02-15.38c0-4.02-6.24-4.03-6.25,0h.01Z"/>
  <path class="cls-3" d="M799.06,1610.92c0,6.48-.34,13.03,.35,19.48,.27,2.52,3.66,2.53,3.93,0,.69-6.44,.36-13,.35-19.48,0-2.98-4.63-2.98-4.63,0h0Z"/>
  <path class="cls-3" d="M1001.64,1514.32c1.96,11.03,2.84,23.16,7.32,33.5,.84,1.94,3.65,.79,3.71-1,.44-11.25-3.25-23.05-5.42-34.04-.73-3.69-6.26-2.11-5.61,1.55h0Z"/>
  <path class="cls-3" d="M1023.29,1722.21v21.59c0,6.62-.99,14.43,1.32,20.74,.77,2.09,3.49,2.09,4.26,0,2.3-6.28,1.32-14.13,1.32-20.74v-21.59c0-4.44-6.89-4.44-6.89,0h0Z"/>
  <path class="cls-3" d="M907.17,1788.93c.86,6.74,1.7,13.48,2.56,20.22,.8,6.3,1.3,13.44,3.74,19.35,.95,2.29,3.93,1.9,4.24-.57,.78-6.34-.63-13.36-1.53-19.64-.98-6.72-1.94-13.44-2.92-20.17-.49-3.42-6.52-2.64-6.08,.83h0Z"/>
  <path class="cls-3" d="M951.87,1844.59c.45,6.97,.89,13.94,1.34,20.92,.39,6.13-.04,13.41,2.65,19.08,.8,1.7,3.3,1.09,3.79-.5,1.85-5.98,.27-13.18-.22-19.31-.54-6.73-1.09-13.47-1.63-20.19-.31-3.77-6.17-3.83-5.92,0h0Z"/>
  <path class="cls-3" d="M1021.54,1809.12c2.02,7.89,3.5,15.99,4.18,24.11,.31,3.75,.42,7.5,.47,11.26s-.75,8.43,.49,12.04c.75,2.18,4.06,3.04,5.27,.68,1.73-3.36,1.45-7.58,1.5-11.31,.05-4.46-.32-8.95-.86-13.37-1.03-8.53-2.9-16.76-5.69-24.88-1.15-3.35-6.24-2.02-5.35,1.47h0Z"/>
  <path class="cls-3" d="M1020.51,1919.75c-.14,7.67-.28,15.33-.43,23-.07,3.71-.18,7.42-.24,11.13s-.39,7.76,.95,11.26c1.18,3.1,5.15,3.11,6.33,0,1.33-3.5,1-7.57,.95-11.26s-.16-7.42-.24-11.13c-.15-7.67-.29-15.33-.43-23-.08-4.44-6.81-4.44-6.89,0h0Z"/>
  <path class="cls-3" d="M886.98,1931.82c1.27,5.15,2.16,10.35,2.52,15.64,.33,4.7-.85,10.42,.57,14.88,.77,2.43,4.66,3.44,5.91,.77,2.21-4.74,1.24-11.25,.79-16.35-.51-5.69-1.5-11.31-2.93-16.83-1.15-4.43-7.95-2.56-6.86,1.89h0Z"/>
  <path class="cls-3" d="M836.35,1850.27c.6,4.64,1.18,9.29,1.78,13.94,.51,4.06,.42,8.93,2.52,12.53,1.29,2.21,4.87,1.81,5.52-.72,1.03-4.06-.36-8.69-.98-12.76-.7-4.63-1.4-9.27-2.1-13.9-.57-3.77-7.21-2.92-6.72,.91h0Z"/>
  <path class="cls-3" d="M786.86,1853.03c.36,6.51,.7,13,1.2,19.49,.45,5.79,.4,12.51,2.91,17.85,.92,1.94,3.98,1.35,4.48-.59,1.5-5.87,0-12.78-.68-18.71-.71-6.28-1.62-12.53-2.46-18.79-.42-3.09-5.62-2.37-5.45,.74h0Z"/>
  <path class="cls-3" d="M795.74,1942c-.16,8.37-.31,16.76-.46,25.13-.07,3.95-.14,7.88-.23,11.83s-.63,8.12,1.09,11.79c.87,1.87,4.06,1.87,4.93,0,1.62-3.47,1.19-7.29,1.1-11.05-.1-4.19-.18-8.37-.25-12.56-.15-8.37-.31-16.76-.46-25.13-.07-3.68-5.64-3.68-5.71,0h0Z"/>
  <path class="cls-3" d="M833.99,1975.43c.54,6.04,1.08,12.07,1.62,18.1,.46,5.17,.22,12.01,2.72,16.62,1.18,2.17,4.46,1.58,5.12-.67,1.48-5.03-.24-11.54-.87-16.67-.71-5.79-1.42-11.58-2.13-17.38-.49-4.03-6.84-4.2-6.47,0h0Z"/>
  <path class="cls-3" d="M835.39,2058.92c.49,4.33-.01,8.9-.96,13.14-.77,3.48-2.49,6.96-.68,10.34,.37,.7,1.47,1.23,2.25,.92,4.18-1.68,4.79-6.28,5.06-10.36,.35-5.1-.62-9.66-1.97-14.54-.54-1.97-3.95-1.67-3.71,.5h0Z"/>
  <path class="cls-3" d="M782,2046.97c-.95,5.37-1.35,10.79-.92,16.23,.38,4.82,.87,10.51,4.1,14.33,1.59,1.88,4.23,.19,4.41-1.83,.4-4.31-1.51-8.86-1.97-13.17-.5-4.64-.44-9.34,.19-13.96,.51-3.75-5.14-5.49-5.82-1.6h0Z"/>
  <path class="cls-3" d="M914.58,2008.84l1.14,14c.33,4.07,.24,8.83,2.36,12.42,1.23,2.08,4.25,1.54,4.97-.65,1.24-3.77,.2-8.12-.32-11.98-.62-4.6-1.24-9.19-1.85-13.79-.52-3.9-6.64-4.12-6.3,0h0Z"/>
  <path class="cls-3" d="M962.53,1959.53c1.33,6.11,2.2,12.28,2.51,18.53,.28,5.84,.16,11.53,1.41,17.28,.42,1.94,2.93,1.52,3.54,0,4.55-11.46,1.54-25.92-1.27-37.52-.98-4.02-7.06-2.31-6.19,1.7h0Z"/>
  <path class="cls-3" d="M988.05,2039.34c.57,5.63,1.13,11.25,1.7,16.87,.48,4.7,.14,11.29,2.81,15.3,1.32,1.97,4.15,1.59,4.92-.64,1.56-4.53-.45-10.91-1.18-15.54-.89-5.58-1.76-11.17-2.65-16.74-.5-3.15-5.93-2.45-5.6,.76h0Z"/>
  <path class="cls-3" d="M1049.41,2014.99c1.31,5.4,2.12,10.94,2.29,16.5,.08,2.69-.01,5.38-.2,8.08-.18,2.51-.68,4.44,.68,6.68,.88,1.44,2.89,1.73,4.1,.53,3.53-3.51,2.23-11.41,1.84-15.96-.51-5.92-1.73-11.61-3.62-17.24-1.08-3.2-5.9-1.93-5.09,1.41h0Z"/>
  <path class="cls-3" d="M814.77,1480.15c-.97,9.92-.38,24.73,7.39,32.08,1.21,1.14,3.78,.42,3.59-1.49-.51-4.97-2.62-9.62-3.65-14.49-1.12-5.31-1.27-10.72-.76-16.11,.39-4.21-6.16-4.18-6.57,0h0Z"/>
  <path class="cls-3" d="M1009.45,1449.52c.48,5.81,.97,11.6,1.46,17.41,.44,5.28,.15,11.84,2.19,16.78,1.05,2.55,5.25,3.32,5.98,0,1.17-5.32-.15-11.41-.65-16.78-.54-5.81-1.09-11.6-1.64-17.41-.44-4.64-7.72-4.72-7.32,0h-.01Z"/>
  <path class="cls-3" d="M1012.36,1366.06c.56,5.12,1.12,10.24,1.67,15.36,.48,4.44,.36,9.8,2.46,13.81,1.1,2.11,4.38,1.54,4.97-.65,1.18-4.33-.13-9.48-.61-13.89-.53-4.88-1.06-9.75-1.59-14.63-.48-4.36-7.38-4.41-6.89,0h0Z"/>
  <path class="cls-3" d="M890.15,1353.2c-3.31,6.33-6.43,16.7-1.26,22.84,1.18,1.4,3.45,.54,3.92-1.03,.85-2.88,.32-5.8,.48-8.75,.19-3.38,.93-6.8,2.26-9.91,1.53-3.59-3.48-6.81-5.4-3.16h0Z"/>
  <path class="cls-9" d="M776.74,486.24c.42,7.7,1.01,15.3,1.82,22.98,.36,3.48,.74,6.97,1.2,10.44s1.63,6.56,2.28,9.88c1.25,6.43,1.61,13.12,2.38,19.61,.71,6.06,1.47,12.1,2.26,18.15,2.81,21.62,4.48,43.31,8.05,64.84,1.79,10.81,3.7,21.59,5.75,32.35,2.2,11.54,5.2,22.9,7.78,34.36,3.02,13.38,5.7,26.85,8.54,40.27,2.92,13.8,4.51,28.78,10.07,41.83,12.97,30.44,53.06,33.12,80.86,25.23,2.28-.65,1.75-3.93-.54-4.04-15.15-.73-30.21,1.99-45.19-1.82-11.67-2.96-23.01-9.18-29.2-19.89-3.58-6.19-5.3-13.14-6.74-20.08-1.51-7.29-2.88-14.61-4.27-21.92-2.47-12.96-5-25.91-7.38-38.88-2.08-11.35-3.42-22.83-5.6-34.16-1.98-10.32-3.96-20.66-5.9-30.99-3.86-20.57-8.8-41.1-11.74-61.81-1.88-13.26-3.89-26.57-5.26-39.89-.39-3.75-.09-7.41-.13-11.16-.04-3.75-.68-7.82-1.12-11.68-.92-8.14-1.97-16.19-3.19-24.28-.4-2.67-4.87-2.05-4.72,.64h0Z"/>
  <path class="cls-9" d="M1216.72,338.79c6.66,.2,13.32-.95,19.93-1.77,6.43-.8,12.87-1.53,19.29-2.41,13-1.79,25.99-3.7,38.98-5.55,13.29-1.9,26.59-3.67,39.89-5.44,10.67-1.43,21.4-3.14,32.19-3.22,9.16-.07,18.56,1.1,26.52,5.96,9.45,5.76,12.77,15.65,14.95,25.94,2.63,12.39,4.81,24.89,7.21,37.34,2.4,12.45,5.31,25.34,7.69,38.07,5.43,29.04,9.02,58.39,14.51,87.4,.19,.97,1.78,.75,1.73-.23-1.44-26.98-5.78-53.93-9.59-80.66-3.85-26.92-8.11-53.66-13.83-80.25-2.22-10.29-5.41-21.01-13.65-28.15-6.95-6.04-15.56-8.45-24.53-9.51-9.62-1.13-19.31-.4-28.89,.81-13.62,1.72-27.24,3.45-40.87,5.13-15.49,1.91-31,3.59-46.5,5.4-7.42,.87-14.82,1.86-22.23,2.86-7.79,1.05-15.85,1.62-23.4,3.85-2.46,.73-1.97,4.37,.6,4.44h0Z"/>
  <path class="cls-9" d="M847.58,741.46c.7,2.78,2.02,5.35,2.91,8.07,.77,2.37,1.43,4.77,2.38,7.08,2.12,5.12,5.45,9.53,10.41,12.18,4.89,2.61,10.21,3.07,15.65,3.11,7.12,.06,14.27-.48,21.39-.59,1.11-.01,1.68-1.66,.6-2.2-10.48-5.14-23.04-.86-33.67-6.04-5.08-2.48-7.23-6.94-9.42-11.87-1.89-4.26-3.36-9.21-7.33-11.98-1.49-1.03-3.31,.67-2.92,2.24h0Z"/>
  <path class="cls-3" d="M688.89,774.31c-18.32,3.08-36.03,9.83-53.41,16.24-17.34,6.41-34.48,13.28-51.41,20.7-4.35,1.91-.59,8.23,3.72,6.37,17.05-7.35,34.23-14.4,51.59-20.98,17.36-6.58,34.32-11.84,50.62-19.67,1.59-.77,.39-2.91-1.12-2.66h0Z"/>
  <path class="cls-3" d="M669.74,857.04c5.48-2.71,10.65-6.07,15.73-9.45s9.99-6.33,14.61-9.96c2.71-2.13-.76-6.36-3.62-4.7-5.26,3.07-10.18,6.9-15.19,10.38s-9.55,6.79-13.87,10.69c-1.71,1.55,.46,3.98,2.35,3.04h0Z"/>
  <path class="cls-3" d="M676.88,955.21c13.9-11.87,26.07-25.37,38.07-39.14,5.9-6.78,11.7-13.65,17.37-20.63,2.91-3.57,5.78-7.18,8.62-10.82,2.67-3.42,5.96-6.86,7.7-10.85,1.38-3.18-2.02-5.95-4.78-3.69-3.51,2.87-6.01,7.07-8.78,10.63-2.69,3.46-5.41,6.9-8.15,10.32-5.62,7.03-11.37,13.96-17.22,20.78-11.73,13.68-24.12,26.73-35.66,40.57-1.65,1.97,.86,4.5,2.82,2.82h0Z"/>
  <path class="cls-3" d="M631.11,614.99c-5.29-.03-10.73-.69-16.03-1.05-4.05-.28-10.7-2.67-14.18-.07-.85,.63-1.36,1.76-.72,2.76,2.63,4.16,9.84,3.58,14.21,3.76,6.03,.25,11.37-.8,17.18-2.07,1.9-.42,1.44-3.33-.45-3.33h0Z"/>
  <path class="cls-3" d="M634.8,562.83c-4.2-3.12-9.59-5.26-14.39-7.32-5.15-2.21-10.38-4.25-15.62-6.24-10.69-4.06-21.48-7.86-32.36-11.39-10.87-3.53-21.41-6.58-32.23-9.48-10.99-2.94-22.14-6.08-33.37-7.89-4.64-.75-6.75,5.95-1.99,7.22,10.82,2.87,21.83,4.99,32.67,7.82,10.84,2.83,21.59,5.94,32.29,9.27,10.69,3.32,21.3,6.89,31.82,10.73,5.04,1.84,10.05,3.73,15.07,5.63,5.26,1.99,10.96,4.5,16.51,5.44,2.37,.4,3.51-2.37,1.6-3.79h0Z"/>
  <path class="cls-3" d="M629.44,506.49c-2.02-.92-3.73-2.38-5.67-3.46-2.15-1.19-4.34-2.31-6.53-3.42-3.94-2.01-7.93-4.77-12.16-6.06-2.71-.83-5.02,2.92-2.83,4.86,3.33,2.96,7.98,4.7,12.08,6.36,2.08,.84,4.18,1.57,6.34,2.18,2.66,.75,5.32,.74,8,1.37,1.04,.25,1.84-1.33,.77-1.82h0Z"/>
  <path class="cls-3" d="M639.84,461.76c-18.79-13.79-38.09-26.83-57.34-39.98-9.41-6.42-18.85-12.78-28.31-19.13-4.93-3.31-9.87-6.62-14.8-9.93-4.68-3.14-9.38-7.06-14.59-9.21-3.55-1.47-5.94,3.72-3.57,6.13,3.94,3.99,9.52,6.8,14.16,9.92s9.46,6.33,14.19,9.51c9.67,6.47,19.34,12.94,29.05,19.32,19.43,12.78,38.78,25.65,58.64,37.75,2.84,1.73,5.12-2.49,2.55-4.37h0Z"/>
  <path class="cls-3" d="M659.81,403.62c-3.96-5.13-7.89-10.13-12.46-14.74-2.2-2.21-4.48-4.35-6.81-6.43s-4.09-4.21-7.26-4.49c-1.5-.13-2.64,1.59-2.23,2.93,.84,2.74,3.14,4.01,5.25,5.79,2.39,2.02,4.71,4.11,7,6.24,4.55,4.24,9.13,8.56,13.3,13.17,1.53,1.69,4.65-.63,3.22-2.48h0Z"/>
  <path class="cls-3" d="M694.61,359.57c-7.38-14.74-16.64-28.27-26.41-41.52-4.67-6.33-9.46-12.59-14.41-18.72-5.26-6.51-10.45-13.44-16.81-18.91-2.9-2.51-8.13,.77-5.67,4.38,4.42,6.49,9.92,12.19,14.94,18.23,5.32,6.41,10.55,12.9,15.61,19.53,9.85,12.93,18.99,26.38,28.8,39.34,1.75,2.31,5.31,.39,3.95-2.31h0Z"/>
  <path class="cls-3" d="M764.58,314.47c-3.25-5.44-7.21-10.41-11.21-15.31s-8.14-10.4-12.58-15.22c-2.48-2.69-7.41,.95-5.16,3.98,3.79,5.11,8.1,9.87,12.18,14.75s8.46,10.06,13.38,14.42c1.77,1.57,4.69-.42,3.39-2.61h0Z"/>
  <path class="cls-3" d="M812.99,292.17c-8.15-28.91-19.42-56.87-26.76-86.02-.9-3.59-1.64-7.21-2.43-10.82-.63-2.84-.86-6.39-2.43-8.87-.92-1.47-3.66-1.89-4.47,0-2.18,5.11,.18,12.37,1.4,17.54,1.78,7.53,3.96,14.95,6.24,22.34,4.93,15.91,10.39,31.66,16.22,47.27,2.47,6.63,5.12,13.19,7.54,19.84,1.05,2.89,5.54,1.76,4.67-1.29h0Z"/>
  <path class="cls-3" d="M887.69,273.52c1.51-6.62,1.38-13.24,.51-19.95-.77-5.98-1.9-12.86-5.93-17.58-1.19-1.4-3.33-.19-3.4,1.41-.27,5.65,1.91,11.51,2.87,17.05,1.06,6.13,1.36,12.36,2.05,18.54,.23,2.06,3.37,2.9,3.92,.53h0Z"/>
  <path class="cls-3" d="M955.02,257.35c1.93-15.81-.27-32.37-1.95-48.11-.96-9-2.02-18.01-3.41-26.95-1-6.48-1.72-14.22-4.93-20.04-1.27-2.29-4.79-1.21-4.82,1.3-.09,6.48,1.71,13.38,2.67,19.78,1.35,8.94,2.56,17.9,3.58,26.89,1.78,15.66,3.31,31.4,4.38,47.12,.2,2.93,4.13,2.81,4.47,0h0Z"/>
  <path class="cls-3" d="M1043.37,248.81c1.97-8.11,3.37-18.54-1.18-26.13-1.04-1.74-3.63-.95-3.71,1-.18,4.02,.9,8.25,1.21,12.28s.71,8.3,.56,12.42c-.07,1.79,2.7,2.17,3.12,.42h0Z"/>
  <path class="cls-3" d="M1104.64,232.79c.8-15.18,1.24-30.31,1.46-45.52,.13-8.62,.07-17.25,.1-25.87,0-3.64-.06-7.29-.1-10.93-.04-2.9,.13-5.78-.7-8.58-.89-2.99-5.19-3-6.08,0-.83,2.81-.66,5.68-.7,8.58-.04,3.64-.11,7.29-.1,10.93,.01,8.62-.04,17.25,.1,25.87,.23,15.21,.67,30.34,1.46,45.52,.16,2.95,4.42,2.95,4.58,0h0Z"/>
  <path class="cls-3" d="M1204.84,217.15c.19-3.95,.47-7.9,.53-11.86,.06-3.6,.34-7.49-.94-10.9-.58-1.56-2.58-1.56-3.17,0-1.28,3.42-1,7.32-.94,10.9,.07,3.96,.33,7.91,.53,11.86,.13,2.56,3.86,2.57,3.99,0h0Z"/>
  <path class="cls-3" d="M1288.67,206.83c3.78-13.49,4.85-27.83,6.02-41.73,.69-8.25,1.3-16.52,1.7-24.79,.16-3.3,.32-6.63,.22-9.94-.07-2.43-.76-4.77-1.16-7.22-.44-2.7-4.41-1.85-4.55,.62-.06,1.05-.08,2.15-.26,3.19,.31-1.77-.38,.83-.51,1.33-.17,.67-.13,1.4-.16,2.08-.17,3.31-.31,6.62-.47,9.94-.38,7.96-.94,15.91-1.59,23.86-1.12,13.7-1.67,27.79-3.92,41.37-.5,3.01,3.81,4.36,4.67,1.29h0Z"/>
  <path class="cls-3" d="M1347.4,215.87c2.4-3.53,4.94-6.97,7.34-10.51,2.17-3.21,4.84-6.54,5.95-10.28,.61-2.04-1.94-3.24-3.38-1.97-2.9,2.55-4.85,6.46-6.84,9.75-2.2,3.64-4.27,7.37-6.47,11.02-1.32,2.19,1.99,4.06,3.39,1.99h0Z"/>
  <path class="cls-3" d="M1407.39,222.34c8.34-11.16,17.79-21.56,27.53-31.51,4.81-4.91,9.8-9.64,14.97-14.17,2.58-2.27,5.23-4.45,7.88-6.65,2.4-1.99,5.51-3.89,7-6.65,1.15-2.13-.74-4.61-3.1-4.03-3.12,.75-5.81,3.44-8.27,5.41-2.67,2.15-5.26,4.42-7.82,6.71-5.44,4.86-10.69,9.94-15.72,15.24-9.81,10.31-18.26,21.68-26.1,33.53-1.52,2.3,2.05,4.24,3.62,2.12h0Z"/>
  <path class="cls-3" d="M1467.07,259.91c5.75-1.97,11.25-4.53,16.33-7.88,4.35-2.87,10.42-6.74,12.2-11.86,.58-1.67-1.33-3.8-3.08-3.08-4.59,1.9-8.25,6.61-12.28,9.52-4.52,3.26-9.42,6.03-14.58,8.15-3.08,1.27-1.9,6.28,1.41,5.14h0Z"/>
  <path class="cls-3" d="M1511.5,317.12c16.27-3.35,32.51-6.91,48.83-9.99,8.04-1.52,16.09-3.01,24.15-4.38,7.98-1.35,16.04-2.14,23.47-5.46,1.65-.74,.55-2.84-.82-3.01-7.93-1.02-15.85,.75-23.67,2.1-8.29,1.43-16.58,2.95-24.82,4.65-16.23,3.35-32.42,7.1-48.32,11.83-2.75,.82-1.6,4.83,1.18,4.26h0Z"/>
  <path class="cls-3" d="M1529.59,382.69c5.98-1.82,12.12-3.13,18.34-3.77,5.66-.58,11.66-.03,17.21-1.32,2.02-.47,1.66-3.11,0-3.74-5.74-2.17-12.66-1.3-18.59-.51-6.27,.83-12.34,2.4-18.29,4.52-2.99,1.07-1.79,5.78,1.33,4.83h0Z"/>
  <path class="cls-3" d="M1543.53,444.42c17.25,4.9,35.1,5.5,52.86,3.44,17.22-1.99,35.92-4.72,51.87-11.8,1.74-.77,.86-3.67-.97-3.57-8.18,.46-16.46,2.39-24.46,4.09-8.75,1.87-17.56,3.51-26.45,4.56-17.12,2.03-34.63,2.27-51.54-1.52-3.1-.69-4.4,3.9-1.32,4.78h0Z"/>
  <path class="cls-3" d="M1557.93,519.08c4.7,.07,9.4,.13,14.11,.19,4.23,.06,9.27,.75,13.32-.6,2.22-.74,2.23-3.78,0-4.52-4.06-1.35-9.07-.66-13.32-.6-4.7,.07-9.4,.13-14.11,.19-3.43,.04-3.44,5.28,0,5.34h0Z"/>
  <path class="cls-3" d="M1569.03,589.43c15.5,1.29,30.99,1.97,46.54,2.05,7.64,.04,15.28,.02,22.91-.33,7.42-.34,15.38-.11,22.64-1.77,1.66-.38,1.79-3.19,0-3.48-7.37-1.18-15.19-.6-22.64-.76-7.45-.16-15.27-.15-22.91-.23-15.51-.17-31.02-.43-46.54-.7-3.4-.06-3.3,4.95,0,5.23h0Z"/>
  <path class="cls-3" d="M1571.33,659.34l15.24,.35c4.67,.11,9.78,.63,14.31-.72,1.85-.55,1.85-3.19,0-3.74-4.52-1.35-9.65-.83-14.31-.72l-15.24,.35c-2.87,.07-2.88,4.41,0,4.47h0Z"/>
  <path class="cls-3" d="M1559.46,722.52c9.24,10.99,20.95,20.42,31.96,29.57,5.26,4.36,10.55,8.65,16.01,12.74,5.89,4.41,11.92,9.29,18.59,12.48,1.68,.8,3.36-1.18,2.02-2.62-5.02-5.43-11.29-9.86-17-14.53-5.71-4.67-10.95-8.82-16.38-13.29-10.94-9.02-21.42-19-32.96-27.25-1.82-1.31-3.52,1.41-2.26,2.92h0Z"/>
  <path class="cls-3" d="M1515.55,774.51c2.94,5.88,5.49,12.86,9.94,17.79,1.26,1.39,3.24-.11,2.93-1.7-1.27-6.51-5.43-12.85-8.36-18.72-1.5-3.01-6.01-.36-4.51,2.63h0Z"/>
  <path class="cls-3" d="M1457.33,814.12c4.22,11.13,8.54,22.2,13.01,33.22,2.2,5.4,4.38,10.82,6.59,16.21,2.21,5.4,4.11,11.25,7.38,15.88,1.59,2.25,4.87,.87,4.38-1.85-.96-5.37-3.71-10.73-5.85-15.74-2.38-5.59-4.8-11.17-7.21-16.75-4.71-10.93-9.56-21.77-14.52-32.59-.97-2.11-4.62-.6-3.79,1.6h0Z"/>
  <path class="cls-3" d="M1369.9,834.25c2.47,11.95,4.94,23.89,7.41,35.83,1.18,5.73,2.35,11.47,3.57,17.19,1.27,6.01,2.62,12.64,4.91,18.34,.74,1.82,3.79,1.8,3.71-.5-.22-5.92-1.64-12.13-2.81-17.92-1.16-5.79-2.61-11.91-3.92-17.86-2.68-12.14-5.36-24.28-8.05-36.41-.7-3.16-5.49-1.82-4.83,1.33h0Z"/>
  <path class="cls-3" d="M820.82,908.81c-4.67,13.72-8.28,27.85-12.16,41.81-1.91,6.87-3.82,13.75-5.73,20.62s-4.47,13.84-4.18,20.77c.07,1.81,2.38,2.43,3.36,.91,3.75-5.81,5.15-13.4,6.91-20.01,1.76-6.61,3.67-13.79,5.5-20.68,3.73-14,7.78-28.01,10.7-42.21,.6-2.89-3.46-4.01-4.41-1.22h0Z"/>
  <path class="cls-3" d="M878.83,920.63c-.13,7.18-1.56,15.87,1.07,22.7,.51,1.32,2.19,1.32,2.7,0,2.63-6.83,1.2-15.53,1.07-22.7-.05-3.12-4.79-3.13-4.85,0h0Z"/>
  <ellipse class="cls-11" cx="1132.47" cy="558.62" rx="174.5" ry="176.91" transform="translate(-39.27 87.92) rotate(-4.37)"/>
  <path class="cls-12" d="M1071.73,578.97c17.02,21.87,56.41,75.03,56.41,75.03l84.32-186.43"/>
  <path class="cls-3" d="M632.06,667.26c-17.05,3.16-33.79,7.66-50.58,11.96-16.94,4.34-34.14,8.47-50.82,13.73-4.76,1.5-2.81,8.61,2.06,7.48,17.03-3.96,33.94-9.16,50.73-14.04s33.34-9.49,49.62-15.44c2.31-.85,1.41-4.14-1.02-3.69h0Z"/>
  <path class="cls-3" d="M646.81,722.65c-6.41,2.8-13.87,3.38-20.67,4.8-5.15,1.08-16.03,3.3-17.35,9.43-.42,1.94,.9,4.09,3.07,4.03,3.38-.11,6.01-2.95,9.13-4.18s6.48-1.96,9.77-2.63c6.74-1.39,13.19-2.49,18.94-6.51,3.06-2.14,.46-6.39-2.88-4.93h0Z"/>
</svg>