<?xml version="1.0" encoding="UTF-8"?><svg id="Layer_1" xmlns="http://www.w3.org/2000/svg" viewBox="0 0 403.73 365.4"><defs><style>.cls-1{fill:#82d9d9;}</style></defs><path class="cls-1" d="M0,303.03c2.81-9.7,4.19-19.7,6.25-29.55,3.28-15.67,6.41-31.38,9.36-47.12,.51-2.71,1.7-2.97,3.93-2.96,20.39,.06,40.78,.11,61.17-.04,3.2-.02,3.33,1.14,2.81,3.66-1.89,9.13-3.56,18.3-5.5,27.41-.45,2.1-.02,2.9,2.01,3.67,30.64,11.62,61.24,23.32,91.84,35.05,1.6,.61,2.97,.5,4.55-.03,35.33-11.74,70.67-23.44,106.01-35.11,1.57-.52,2.76-1.08,3.14-2.97,4.93-24.98,9.93-49.95,14.91-74.91-1.63-.78-3.23-.43-4.78-.43-88.92-.02-177.85-.04-266.77,.05-3.56,0-4.55-.48-3.74-4.39,4.19-20.31,8.05-40.69,11.96-61.06,.37-1.93,1.14-2.78,3.12-2.53,.91,.11,1.84,.02,2.76,.02,88.92,0,177.85-.02,266.77,.09,3.44,0,4.64-.96,5.24-4.31,2.14-11.88,4.57-23.72,7.04-35.53,.63-3,.53-4.32-3.25-4.14-7.48,.36-14.99,.11-22.49,.11-81.69,0-163.38,0-245.06,0q-4.66,0-3.76-4.56c3.93-19.83,7.92-39.65,11.75-59.5C59.82,1.02,60.8,0,64.01,0c112.07,.11,224.15,.1,336.22,.05,2.83,0,4.02,.08,3.28,3.7-9.78,48.25-19.35,96.53-28.97,144.81-10.12,50.72-20.28,101.43-30.29,152.16-.61,3.11-1.82,4.56-4.86,5.56-58.88,19.43-117.73,38.97-176.54,58.61-2.65,.88-4.75,.54-7.13-.36-50.54-19.39-101.08-38.76-151.65-58.08-1.29-.49-2.52-1.52-4.09-1.04v-2.37Z"/></svg>