<?xml version="1.0" encoding="UTF-8"?><svg id="Layer_1" xmlns="http://www.w3.org/2000/svg" viewBox="0 0 364.31 409.25"><defs><style>.cls-1{fill:#f0f2f2;}.cls-2{fill:#6fbfbf;}.cls-3{fill:#82d9d9;}</style></defs><path class="cls-2" d="M183.67,409.25h-1.6c-1.58-1.51-1.86-3.47-1.88-5.5-.11-17.54-.11-35.07,0-52.61,0-1.32,.03-2.67,.68-3.88,1.69-2.93,4.75-3.68,7.63-4.64,26.97-9.04,53.97-18.01,80.95-27.02,.88-.29,1.77-.59,2.65-.89,6.28-2.16,6.56-2.87,7.06-9.37,1.02-13.1,1.92-26.22,2.87-39.32,.92-12.84,1.79-25.7,2.72-38.54,.97-13.37,1.65-26.77,2.9-40.12,.37-3.97,.27-7.96,.74-11.93,.32-2.71-1.28-4.2-3.98-4.44-1.59-.14-3.19-.1-4.78-.1-30.17,0-60.35,.02-90.52-.04-2.72,0-5.66,.5-7.83-1.94-1-1.67-1.09-3.54-1.1-5.39-.08-16.3-.08-32.6,0-48.9,0-1.99,.07-3.99,1.25-5.74,2.45-2.2,5.49-1.71,8.36-1.72,30.97-.05,61.93-.02,92.9-.03,10.37,0,11.13-.65,11.5-10.89,.3-8.23,1.28-16.42,1.62-24.64,.33-7.93-.3-8.46-8.1-8.47-32.56-.02-65.12,.02-97.69-.03-2.88,0-5.9,.47-8.42-1.59-1.38-1.82-1.41-3.96-1.42-6.08-.07-16.31-.07-32.62,0-48.93,0-1.97-.12-4.01,1.23-5.71,1.25-1.13,2.79-.66,4.2-.66,57.98-.02,115.96-.02,173.94-.02,4.53,0,4.78,.13,4.76,4.65-.04,10.24-1.28,20.41-1.87,30.63-.56,9.54-1.33,19.08-2.05,28.62-1.02,13.38-1.93,26.76-2.9,40.14-.66,9.01-1.27,18.02-1.91,27.03-.97,13.65-1.96,27.29-2.9,40.94-.86,12.46-1.76,24.91-2.65,37.37-.97,13.65-1.96,27.29-2.94,40.94-.89,12.46-1.77,24.91-2.65,37.37-.98,13.91-1.85,27.83-2.95,41.74-.67,8.47-1.15,16.97-1.85,25.44-.28,3.39-1.64,5.32-4.87,6.37-26.32,8.51-52.51,17.4-78.83,25.88-10.76,3.47-21.45,7.15-32.2,10.63-13.21,4.28-26.15,9.54-40.06,11.39Z"/><path class="cls-3" d="M182.11,.65c-.02,20.13-.03,40.26-.05,60.38-.11,.23-.23,.45-.34,.68-2.27,1.96-5.05,1.38-7.64,1.38-31.78,.06-63.55,.03-95.33,.04-10.04,0-10.18,.01-9.65,10.12,.94,18.17,2.54,36.3,3.77,54.46,.89,13.12,1.84,26.24,2.71,39.36,.95,14.31,1.87,28.63,3.15,42.92,.29,3.23,2.04,4.74,5.18,4.87,1.6,.06,3.19,.06,4.79,.06,28.45,0,56.91-.01,85.36,.02,2.64,0,5.34-.26,7.84,.99,.46,.26,.83,.61,1.1,1.07,1.03,1.96,1.02,4.09,1.02,6.21,.04,21.86,.03,43.73,.01,65.59,0,2.27-.19,4.5-.93,6.65-.17,.46-.44,.85-.81,1.17-1.46,1.06-2.99,.76-4.55,.25-15.28-4.99-30.51-10.12-45.76-15.22-2.88-.96-4.46-2.66-4.42-5.79,.02-1.46-.21-2.91-.52-4.35-.55-2.55-1.98-3.97-4.67-3.99-11.69-.07-23.38-.07-35.07,0-2.72,.02-4.14,1.17-4,4.16,.54,11.93,1.53,23.83,2.38,35.74,.29,4.05,2.38,5.74,5.89,6.91,27.74,9.21,55.46,18.46,83.19,27.71,2.64,.88,5.36,1.59,7.38,3.71,.25,.41,.25,.82,0,1.23,0,20.76-.01,41.51-.02,62.27h-.8c-13.92-1.77-26.84-7.08-40.03-11.4-35.76-11.7-71.48-23.53-107.24-35.23-8.93-2.92-8.97-3.49-9.56-13.04-.84-13.52-1.82-27.03-2.82-40.54-.94-12.58-1.79-25.17-2.69-37.76-.97-13.51-1.91-27.03-2.92-40.53-.65-8.74-1.28-17.49-1.85-26.23-.9-13.92-1.98-27.82-2.96-41.73-.88-12.45-1.76-24.91-2.64-37.36-.97-13.64-1.94-27.29-2.95-40.93-.67-9.14-1.21-18.29-1.87-27.43-.95-13.38-1.78-26.77-2.93-40.13C.48,12.83,.47,8.71,.06,4.61-.29,1.04,.76,.15,4.38,.13c5.98-.04,11.97-.01,17.95-.01,51.72,0,103.44,0,155.17,.03,1.53,0,3.18-.55,4.61,.51Z"/><path class="cls-1" d="M181.3,296.04c.27-.09,.54-.17,.81-.26,1.12-2,3-2.87,5.07-3.55,12.49-4.09,24.86-8.56,37.47-12.29,7.61-2.25,8.53-3.57,8.95-11.45,.76-14.44,1.76-28.86,3.02-43.26,.42-4.82-.84-6.39-5.65-6.42-14.08-.1-28.15,0-42.23-.06-2.36-.01-4.85,.28-6.69-1.76l.05-.3c-1.52-.97-1.84-2.52-1.86-4.14-.2-13.2-.19-26.41,0-39.61,.02-1.05,.11-2.12,.72-3.05,.26-.47,.62-.83,1.08-1.1,19.67,.05,39.33,.12,59,.15,15.28,.02,30.57,.08,45.85-.06,2.86-.03,3.99,.49,3.74,3.65-1.04,12.84-1.82,25.7-2.75,38.54-.93,12.98-1.93,25.95-2.88,38.93-1.28,17.61-2.53,35.23-3.8,52.84-.04,.53-.12,1.06-.15,1.59q-.64,9.63-9.83,12.72c-29.71,9.95-59.43,19.88-89.15,29.82-.04-.19-.08-.37-.09-.57-1.66-1.65-1.82-3.77-1.83-5.92-.07-13.16-.07-26.32,0-39.48,.01-1.72,.01-3.48,1.12-4.97Z"/><path class="cls-1" d="M182.06,61.04c8.37,.05,16.74,.14,25.11,.14,29.11,.02,58.21,.06,87.32-.06,3.29-.01,4.21,.6,3.89,4.13-1.21,13.09-2.18,26.2-2.87,39.32-.18,3.5-.88,4.63-4.61,4.61-34.69-.16-69.38-.1-104.06-.09-1.59,0-3.18,.09-4.77,.14-.21-.15-.43-.31-.64-.46-1.37-1.68-1.22-3.72-1.24-5.68-.08-11.88-.09-23.76,.01-35.64,.02-2.19-.31-4.59,1.93-6.12l-.05-.3Z"/><path class="cls-3" d="M182.06,109.24c0,19.86,0,39.71,0,59.57,0,0,.06,.3,.06,.3-1.39,1.53-3.23,1.72-5.12,1.73-16.89,.1-33.78,.16-50.67-.04-5.64-.07-6.43-1.13-6.81-6.96-1.09-16.84-2.47-33.67-3.52-50.51-.28-4.54,.62-5.9,5.14-6.05,10.24-.35,20.48-.11,30.72-.14,8.11-.02,16.23-.06,24.34,.03,2.13,.02,4.3-.03,5.92,1.75l-.06,.3Z"/><path class="cls-1" d="M182.11,108.93c-20.05,.05-40.1,.21-60.15,.06-3.83-.03-4.41,1.02-4.1,4.65,1.4,16.54,2.47,33.11,3.59,49.67,.38,5.64,.29,5.64,6.09,5.65,18.19,.04,36.38,.1,54.58,.15,0,15.87,0,31.73,0,47.6-21.27,.05-42.55,.11-63.82,.15-12.63,.02-25.27-.07-37.9,.06-2.57,.03-3.42-.73-3.59-3.3-2.39-35.29-4.87-70.58-7.34-105.87-1.01-14.46-2.04-28.92-3.14-43.37-.18-2.33,.27-3.26,2.9-3.25,37.37,.09,74.74,.07,112.11,.09,.26,0,.53,.08,.79,.12,0,15.87,0,31.73,0,47.6Z"/><path class="cls-1" d="M181.3,296.04c.68,1.34,.78,2.79,.78,4.26-.03,15.37-.05,30.74-.08,46.11-12.98-4.27-25.97-8.5-38.93-12.81-18.52-6.15-37-12.4-55.54-18.46-2.7-.88-3.6-2.13-3.76-4.98-.77-13.4-1.74-26.8-2.85-40.18-.27-3.24,.02-4.63,3.93-4.55,13.42,.28,26.85,.19,40.28,.04,2.72-.03,3.99,.66,3.66,3.46-.92,7.75,2.78,11.05,10.19,13.12,14.29,3.99,28.24,9.24,42.32,13.97Z"/><path class="cls-2" d="M182.06,217.01c18.06-.05,36.12-.05,54.18-.2,2.6-.02,2.7,1.18,2.56,3.15-.96,13.63-1.85,27.27-2.79,40.91-.36,5.16-.8,10.32-1.19,15.48-.09,1.18,.04,2.31-1.55,2.81-17.1,5.41-33.92,11.65-51.15,16.64-.02-26.26-.04-52.52-.06-78.78Z"/></svg>