<?xml version="1.0" encoding="UTF-8"?><svg id="Layer_1" xmlns="http://www.w3.org/2000/svg" viewBox="0 0 498 497.88"><defs><style>.cls-1{fill:#f0f2f2;}.cls-2{fill:#fdfbf0;}.cls-3{fill:#82d9d9;}</style></defs><path class="cls-3" d="M.02,497.41V.53C.84,.08,1.73,.3,2.58,.3c164.05-.01,328.1-.01,492.15,0,3.25,0,2.9-.33,2.9,2.9,0,163.88,0,327.77,0,491.65,0,.85,.13,1.72-.15,2.56-.82,.43-1.71,.22-2.56,.22-164.12,.01-328.23,.01-492.35,0-.85,0-1.74,.22-2.56-.22Z"/><path class="cls-2" d="M497.35,497.39c.02-1.02,.07-2.05,.07-3.07,0-163.39,0-326.77,0-490.16,0-.71-.04-1.42,0-2.13,.08-1.14-.45-1.56-1.54-1.49-.79,.05-1.58,0-2.37,0-163.32,0-326.63,0-489.95,0-1.18,0-2.37-.01-3.55-.02C.13,.38-.22,.03,.26,.05c.63,.02,1.26,0,1.89,0C166.65,.05,331.14,.06,495.63,0c1.92,0,2.3,.38,2.3,2.3-.06,164.48-.05,328.97-.08,493.45,0,.69,.55,1.6-.44,2.13-.31-.13-.33-.3-.06-.49Z"/><path class="cls-1" d="M381.04,458.45c-20.16-.17-38.89-4.16-55.77-14.96-12.22-7.82-21.64-18.22-28.57-30.95-.8-1.46-.57-2.05,.84-2.86,11.49-6.57,22.95-13.2,34.36-19.9,1.51-.88,2.18-.78,3.11,.73,3.66,5.94,7.92,11.44,13.42,15.79,14.58,11.53,30.88,13.65,48.13,7.68,8.52-2.95,14.17-9.08,14.88-18.62,.59-7.92-2.48-14.28-8.72-19.15-4.51-3.52-9.58-6.05-14.72-8.47-10.9-5.14-22.21-9.36-33.02-14.68-7.94-3.91-15.5-8.43-22.34-14.1-16.28-13.52-23.14-31.18-22.79-51.99,.49-29.35,18.91-51.87,48.18-58.7,14.69-3.43,29.44-3.18,44.04,.52,18.87,4.77,32.09,16.77,41.74,33.22,.66,1.12,.37,1.57-.61,2.2-11.22,7.17-22.43,14.37-33.61,21.61-1.21,.78-1.68,.43-2.31-.67-2.24-3.91-4.8-7.62-8.17-10.66-8.98-8.11-19.48-9.96-30.6-6-15.93,5.67-15.21,24.92-7.39,32.87,3.43,3.48,7.47,6.02,11.76,8.24,8.97,4.63,18.41,8.2,27.6,12.32,12.17,5.46,24.04,11.45,34.5,19.91,14.6,11.82,22.04,27.21,23.08,45.83,.73,13.07-1.02,25.66-7.57,37.23-8.19,14.47-20.91,23.26-36.35,28.5-10.86,3.69-22.1,5-33.11,5.09Z"/><path class="cls-1" d="M270.24,313.52c0,27.05,.18,54.1-.09,81.14-.11,10.88-2.66,21.41-7.6,31.21-7.11,14.11-18.41,23.52-33.35,28.25-19.02,6.02-38.22,6.09-57.18-.29-18.68-6.29-31.79-19.03-40.57-36.47-.62-1.24-.52-1.82,.71-2.56,11.69-7,23.36-14.06,34.99-21.16,1.25-.77,1.75-.65,2.46,.64,2.52,4.55,5.31,8.92,8.6,12.99,9.35,11.56,24.87,10.98,33.89,6.94,6.9-3.09,9.48-9.31,10.78-16.23,.74-3.96,.9-7.98,.9-12.01,0-51.49,.02-102.99-.07-154.48,0-2.46,.68-2.93,2.99-2.91,13.72,.11,27.44,.11,41.17,0,2.14-.02,2.57,.61,2.57,2.63-.07,27.44-.04,54.89-.04,82.33-.06,0-.11,0-.17,0Z"/></svg>